<svg xmlns="http://www.w3.org/2000/svg" viewBox="0 0 800 800">
  <defs>
    <linearGradient id="g" x1="0" x2="1" y1="0" y2="1">
      <stop offset="0" stop-color="#101812"/>
      <stop offset=".55" stop-color="#315335"/>
      <stop offset="1" stop-color="#27d9f8"/>
    </linearGradient>
  </defs>
  <rect width="800" height="800" fill="url(#g)"/>
  <path d="M0 500c105-70 170-70 280-8 136 76 236 82 520-70v378H0Z" fill="#020605" opacity=".6"/>
  <g fill="none" stroke="#fff" stroke-opacity=".18" stroke-width="2">
    <path d="M80 590c130-120 260-120 390 0s250 120 350 0"/>
    <path d="M80 520c130-120 260-120 390 0s250 120 350 0"/>
    <path d="M80 450c130-120 260-120 390 0s250 120 350 0"/>
  </g>
  <circle cx="250" cy="235" r="110" fill="#fff" opacity=".14"/>
</svg>
